<?xml version="1.0" encoding="UTF-8" standalone="no"?>
<svg
   xmlns:svg="http://www.w3.org/2000/svg"
   xmlns="http://www.w3.org/2000/svg"
   id="edython-bug"
   height="32"
   width="32"
   version="1.0">
  <g
    id="g-edython"
    style="fill:none;stroke:#000;stroke-width:2px;stroke-linecap:round;stroke-linejoin:round"
    transform='rotate(45,16,16)'>
    <path
      d="M 1,16 a 15,15 0 0 0 30,0 a 15,15 0 0 0 -30,0 Z M 1,16 l 30,0"
      id="p-edython-forbid-1" />
    <path
      d="M 7,23 l 3,-4 a 6,6 0 0 0 12,0 l 3,4"
      id="p-edython-bug-1" />
    <path
      d="M 16,19 l 0,6"
      id="p-edython-bug-2" />
    <path
      d="M 25,9 l -4,4 a 5,6 0 0 0 -10,0 l -4,-4"
      id="p-edython-bug-3" />
    <path
      d="M 13,5 l 1,3 a 4,4 0 0 0 4,0 l 1,-3"
      id="p-edython-bug-4" />
  </g>
</svg>
