<?xml version="1.0" encoding="UTF-8" standalone="no"?>
<svg
   xmlns:dc="http://purl.org/dc/elements/1.1/"
   xmlns:cc="http://creativecommons.org/ns#"
   xmlns:rdf="http://www.w3.org/1999/02/22-rdf-syntax-ns#"
   xmlns:svg="http://www.w3.org/2000/svg"
   xmlns="http://www.w3.org/2000/svg"
   xmlns:sodipodi="http://sodipodi.sourceforge.net/DTD/sodipodi-0.dtd"
   xmlns:inkscape="http://www.inkscape.org/namespaces/inkscape"
   height="1024"
   width="1024"
   version="1.1"
   id="svg2"
   inkscape:version="0.91 r13725"
   sodipodi:docname="icon@1024.svg">
  <metadata
     id="metadata13">
    <rdf:RDF>
      <cc:Work
         rdf:about="">
        <dc:format>image/svg+xml</dc:format>
        <dc:type
           rdf:resource="http://purl.org/dc/dcmitype/StillImage" />
        <dc:title></dc:title>
      </cc:Work>
    </rdf:RDF>
  </metadata>
  <defs
     id="defs11" />
  <sodipodi:namedview
     pagecolor="#ffffff"
     bordercolor="#666666"
     borderopacity="1"
     objecttolerance="10"
     gridtolerance="10"
     guidetolerance="10"
     inkscape:pageopacity="0"
     inkscape:pageshadow="2"
     inkscape:window-width="775"
     inkscape:window-height="480"
     id="namedview9"
     showgrid="false"
     fit-margin-top="0"
     fit-margin-left="0"
     fit-margin-right="0"
     fit-margin-bottom="0"
     inkscape:zoom="0.1866066"
     inkscape:cx="512"
     inkscape:cy="512"
     inkscape:window-x="0"
     inkscape:window-y="0"
     inkscape:window-maximized="0"
     inkscape:current-layer="svg2" />
  <g
     style="fill-opacity:1;stroke:none"
     id="g-edython"
     transform="scale(64,64)">
    <path
       d="M 14,10 A 2,2 0 0 0 12,8 L 4,8 A 2,2 1 0 1 2,6 L 7,6 A 3,3 0 0 0 7,0 L 4,0 A 4,4 0 0 0 0,4 l 0,2 a 4,4 0 0 0 4,4 z"
       style="fill:#f9951b"
       id="p-e-orange"
       inkscape:connector-curvature="0" />
    <path
       id="p-e-gris"
       style="fill:#98959b"
       d="m 2,6 a 2,2 0 0 0 2,2 l 8,0 a 2,2 0 0 1 2,2 l -5,0 a 3,3 0 0 0 0,6 l 3,0 a 4,4 0 0 0 4,-4 l 0,-2 A 4,4 0 0 0 12,6 Z"
       inkscape:connector-curvature="0" />
    <path
       style="fill:#f9951b"
       id="eye-orange"
       d="m 9,12 a 1,1 0 0 1 0,2 1,1 0 1 1 0,-2 z"
       inkscape:connector-curvature="0" />
    <path
       d="M 7,2 A 1,1 0 0 1 7,4 1,1 0 1 1 7,2 Z"
       id="eye-grey"
       style="fill:#98959b"
       inkscape:connector-curvature="0" />
  </g>
</svg>
