<?xml version="1.0" encoding="UTF-8" standalone="no"?>
<svg
   xmlns:dc="http://purl.org/dc/elements/1.1/"
   xmlns:cc="http://creativecommons.org/ns#"
   xmlns:rdf="http://www.w3.org/1999/02/22-rdf-syntax-ns#"
   xmlns:svg="http://www.w3.org/2000/svg"
   xmlns="http://www.w3.org/2000/svg"
   version="1.1"
   id="edython"
   viewBox="0 0 1024 1024"
   height="1024"
   width="1024">
  <metadata
     id="metadata4343">
    <rdf:RDF>
      <cc:Work
         rdf:about="">
        <dc:format>image/svg+xml</dc:format>
        <dc:type
           rdf:resource="http://purl.org/dc/dcmitype/StillImage" />
        <dc:title></dc:title>
      </cc:Work>
    </rdf:RDF>
  </metadata>
  <defs
     id="defs4341" />
  <g
     transform="scale(16,16)"
     id="g4353">
    <g
       style="fill-opacity:1;stroke:none"
       id="g-edython">
      <path
         d="m 16,13 c 0,-3 5,-5 8,-5 3,0 8,2 8,5 0,3 -5,5 -8,5 -3,0 -8,-2 -8,-5 z m 16,11 c 4,0 8,-6 8,-10 C 40,6 32,0 20,0 8,0 0,8 0,20 0,32 8,40 20,40 l 32,0 c 0,-4 -4,-8 -8,-8 l -24,0 c -4,0 -8,-4 -8,-8 z"
         style="fill:#f9951b"
         id="p-e-orange" />
      <path
         d="m 47.875,51 c 0,3 -5,5 -8,5 -3,0 -8,-2 -8,-5 0,-3 5,-5 8,-5 3,0 8,2 8,5 z M 32,40 c -4,0 -8,6 -8,10 0,8 8,14 20,14 C 56,64 64,56 64,44 64,32 56,24 44,24 l -32,0 c 0,4 4,8 8,8 l 24,0 c 4,0 8,4 8,8 z"
         style="fill:#9b959b;fill-opacity:1"
         id="p-e-grey" />
      <path
         d="m 8,24 4,0 c 0,4 4,8 8,8 l 24,0 c 4,0 8,4 8,8 0,-2 -4,-4 -8,-4 L 20,36 C 14,36 8,32 8,24 Z"
         style="fill:#fccc64"
         id="p-tail-orange-light" />
      <path
         d="m 56,40 -4,0 c 0,-4 -4,-8 -8,-8 l -24,0 c -4,0 -8,-4 -8,-8 0,2 4,4 8,4 l 24,0 c 6,0 12,4 12,12 z"
         style="fill:#c4c4c4"
         id="p-tail-grey-light" />
    </g>
  </g>
</svg>
