<?xml version="1.0" encoding="UTF-8" standalone="no"?>
<svg
   xmlns:dc="http://purl.org/dc/elements/1.1/"
   xmlns:cc="http://creativecommons.org/ns#"
   xmlns:rdf="http://www.w3.org/1999/02/22-rdf-syntax-ns#"
   xmlns:svg="http://www.w3.org/2000/svg"
   xmlns="http://www.w3.org/2000/svg"
   width="64"
   height="64"
   viewBox="0 0 64 64"
   id="edython"
   version="1.1">
  <g
     style="fill-opacity:1;stroke:none"
     id="g-edython" >
    <path
       d="m 16,13 c 0,-3 5,-5 8,-5 3,0 8,2 8,5 0,3 -5,5 -8,5 -3,0 -8,-2 -8,-5 z m 16,11 c 8,0 8,-2 8,-4 C 40,8 32,0 20,0 8,0 0,8 0,20 0,32 8,40 20,40 l 32,0 c 0,-4 -4,-8 -8,-8 l -24,0 c -4,0 -8,-4 -8,-8 z"
       style="fill:#f9951b"
       id="p-e-orange" />
    <path
       d="m 47.875,51 c 0,3 -5,5 -8,5 -3,0 -8,-2 -8,-5 0,-3 5,-5 8,-5 3,0 8,2 8,5 z M 32,40 c -8,0 -8,2 -8,4 0,12 8,20 20,20 C 56,64 64,56 64,44 64,32 56,24 44,24 l -32,0 c 0,4 4,8 8,8 l 24,0 c 4,0 8,4 8,8 z"
       style="fill:#98959b"
       id="p-e-grey" />
    <path
       d="m 8,24 4,0 c 0,4 4,8 8,8 l 24,0 c 4,0 8,4 8,8 0,-2 -4,-4 -8,-4 L 20,36 C 14,36 8,32 8,24 Z"
       style="fill:#fccc64"
       id="p-tail-orange-light" />
    <path
       d="m 56,40 -4,0 c 0,-4 -4,-8 -8,-8 l -24,0 c -4,0 -8,-4 -8,-8 0,2 4,4 8,4 l 24,0 c 6,0 12,4 12,12 z"
       style="fill:#c4c4c4"
       id="p-tail-grey-light" />
  </g>
</svg>
