<?xml version="1.0" encoding="UTF-8" standalone="no"?>
<!-- Created with Inkscape (http://www.inkscape.org/) -->

<svg
   xmlns:dc="http://purl.org/dc/elements/1.1/"
   xmlns:cc="http://creativecommons.org/ns#"
   xmlns:rdf="http://www.w3.org/1999/02/22-rdf-syntax-ns#"
   xmlns:svg="http://www.w3.org/2000/svg"
   xmlns="http://www.w3.org/2000/svg"
   xmlns:sodipodi="http://sodipodi.sourceforge.net/DTD/sodipodi-0.dtd"
   xmlns:inkscape="http://www.inkscape.org/namespaces/inkscape"
   width="1024"
   height="1024"
   viewBox="0 0 1024 1024"
   id="svg2"
   version="1.1"
   inkscape:version="0.91 r13725"
   sodipodi:docname="logo.svg"
   inkscape:export-filename="/Volumes/Users/edython/github/edython/gfx/logo_1024x1024.png"
   inkscape:export-xdpi="72"
   inkscape:export-ydpi="72">
  <defs
     id="defs4" />
  <sodipodi:namedview
     id="base"
     pagecolor="#ffffff"
     bordercolor="#666666"
     borderopacity="1.0"
     inkscape:pageopacity="0.0"
     inkscape:pageshadow="2"
     inkscape:zoom="0.97501663"
     inkscape:cx="434.88832"
     inkscape:cy="506.58864"
     inkscape:document-units="px"
     inkscape:current-layer="svg2"
     showgrid="true"
     inkscape:window-width="1280"
     inkscape:window-height="755"
     inkscape:window-x="1"
     inkscape:window-y="0"
     inkscape:window-maximized="0"
     units="px"
     fit-margin-top="0"
     fit-margin-left="0"
     fit-margin-right="0"
     fit-margin-bottom="0"
     showguides="true"
     inkscape:guide-bbox="true" />
  <metadata
     id="metadata7">
    <rdf:RDF>
      <cc:Work
         rdf:about="">
        <dc:title></dc:title>
      </cc:Work>
    </rdf:RDF>
  </metadata>
  <g
     id="edython">
    <path
       inkscape:connector-curvature="0"
       d="m 256,208 c 0,-48 80,-80 128,-80 48,0 128,32 128,80 0,48 -80,80 -128,80 -48,0 -128,-32 -128,-80 z M 512,384 C 640,384 640,352 640,320 640,128 512,0 320,0 128,0 0,128 0,320 0,512 128,640 320,640 l 512,0 C 832,576 768,512 704,512 l -384,0 C 256,512 192,448 192,384 Z"
       style="fill:#f9951b;fill-opacity:1;stroke:none"
       id="e-orange" />
    <path
       id="e-gris"
       style="fill:#98959b;fill-opacity:1;stroke:none"
       d="m 766,816 c 0,48 -80,80 -128,80 -48,0 -128,-32 -128,-80 0,-48 80,-80 128,-80 48,0 128,32 128,80 z M 512,640 c -128,0 -128,32 -128,64 0,192 128,320 320,320 192,0 320,-128 320,-320 0,-192 -128,-320 -320,-320 l -512,0 c 0,64 64,128 128,128 l 384,0 c 64,0 128,64 128,128 z"
       inkscape:connector-curvature="0" />
    <path
       sodipodi:nodetypes="ccsscssc"
       inkscape:connector-curvature="0"
       id="queue-orange-clair"
       d="m 128,384 64,0 c 0,64 64,128 128,128 l 384,0 c 64,0 128,64 128,128 0,-32 -64,-64 -128,-64 l -384,0 C 224,576 128,512 128,384 Z"
       style="fill:#fccc64;fill-opacity:1;stroke:none" />
    <path
       sodipodi:nodetypes="ccsscssc"
       style="fill:#c4c4c4;fill-opacity:1;stroke:none"
       d="m 896,640 -64,0 C 832,576 768,512 704,512 l -384,0 c -64,0 -128,-64 -128,-128 0,32 64,64 128,64 l 384,0 c 96,0 192,64 192,192 z"
       id="queue-gris-clair"
       inkscape:connector-curvature="0" />
  </g>
</svg>
