<?xml version="1.0" encoding="UTF-8" standalone="no"?>
<svg
   xmlns:dc="http://purl.org/dc/elements/1.1/"
   xmlns:cc="http://creativecommons.org/ns#"
   xmlns:rdf="http://www.w3.org/1999/02/22-rdf-syntax-ns#"
   xmlns:svg="http://www.w3.org/2000/svg"
   xmlns="http://www.w3.org/2000/svg"
   xmlns:xlink="http://www.w3.org/1999/xlink"
   id="svg2"
   height="32"
   width="32"
   version="1.0">
  <metadata
     id="metadata2193">
    <rdf:RDF>
      <cc:Work
         rdf:about="">
        <dc:format>image/svg+xml</dc:format>
        <dc:type
           rdf:resource="http://purl.org/dc/dcmitype/StillImage" />
        <dc:title></dc:title>
      </cc:Work>
    </rdf:RDF>
  </metadata>
  <defs
     id="defs4">
    <linearGradient
       id="linearGradient2795">
      <stop
         id="stop2797"
         offset="0"
         style="stop-color:#b8b8b8;stop-opacity:0.49803922" />
      <stop
         id="stop2799"
         offset="1"
         style="stop-color:#7f7f7f;stop-opacity:0" />
    </linearGradient>
    <linearGradient
       id="linearGradient2787">
      <stop
         id="stop2789"
         offset="0"
         style="stop-color:#7f7f7f;stop-opacity:0.5" />
      <stop
         id="stop2791"
         offset="1"
         style="stop-color:#7f7f7f;stop-opacity:0" />
    </linearGradient>
    <linearGradient
       id="linearGradient3676">
      <stop
         id="stop3678"
         offset="0"
         style="stop-color:#b2b2b2;stop-opacity:0.5" />
      <stop
         id="stop3680"
         offset="1"
         style="stop-color:#b3b3b3;stop-opacity:0" />
    </linearGradient>
    <linearGradient
       id="linearGradient3236">
      <stop
         id="stop3244"
         offset="0"
         style="stop-color:#f4f4f4;stop-opacity:1" />
      <stop
         id="stop3240"
         offset="1"
         style="stop-color:#ffffff;stop-opacity:1" />
    </linearGradient>
    <linearGradient
       id="linearGradient4671">
      <stop
         id="stop4673"
         offset="0"
         style="stop-color:#ffd43b;stop-opacity:1" />
      <stop
         id="stop4675"
         offset="1"
         style="stop-color:#ffe873;stop-opacity:1" />
    </linearGradient>
    <linearGradient
       id="linearGradient4689">
      <stop
         id="stop4691"
         offset="0"
         style="stop-color:#5a9fd4;stop-opacity:1" />
      <stop
         id="stop4693"
         offset="1"
         style="stop-color:#306998;stop-opacity:1" />
    </linearGradient>
    <linearGradient
       gradientTransform="translate(100.2702,99.61116)"
       gradientUnits="userSpaceOnUse"
       xlink:href="#linearGradient4671"
       id="linearGradient2987"
       y2="144.75717"
       x2="-65.308502"
       y1="144.75717"
       x1="224.23996" />
    <linearGradient
       gradientTransform="translate(100.2702,99.61116)"
       gradientUnits="userSpaceOnUse"
       xlink:href="#linearGradient4689"
       id="linearGradient2990"
       y2="76.313133"
       x2="26.670298"
       y1="77.475983"
       x1="172.94208" />
    <linearGradient
       gradientTransform="translate(100.2702,99.61116)"
       gradientUnits="userSpaceOnUse"
       xlink:href="#linearGradient4689"
       id="linearGradient2587"
       y2="76.313133"
       x2="26.670298"
       y1="77.475983"
       x1="172.94208" />
    <linearGradient
       gradientTransform="translate(100.2702,99.61116)"
       gradientUnits="userSpaceOnUse"
       xlink:href="#linearGradient4671"
       id="linearGradient2589"
       y2="144.75717"
       x2="-65.308502"
       y1="144.75717"
       x1="224.23996" />
    <linearGradient
       gradientTransform="translate(100.2702,99.61116)"
       gradientUnits="userSpaceOnUse"
       xlink:href="#linearGradient4689"
       id="linearGradient2248"
       y2="76.313133"
       x2="26.670298"
       y1="77.475983"
       x1="172.94208" />
    <linearGradient
       gradientTransform="translate(100.2702,99.61116)"
       gradientUnits="userSpaceOnUse"
       xlink:href="#linearGradient4671"
       id="linearGradient2250"
       y2="144.75717"
       x2="-65.308502"
       y1="144.75717"
       x1="224.23996" />
    <linearGradient
       gradientTransform="matrix(0.562541,0,0,0.567972,-11.5974,-7.60954)"
       gradientUnits="userSpaceOnUse"
       xlink:href="#linearGradient4671"
       id="linearGradient2255"
       y2="144.75717"
       x2="-65.308502"
       y1="144.75717"
       x1="224.23996" />
    <linearGradient
       gradientTransform="matrix(0.562541,0,0,0.567972,-11.5974,-7.60954)"
       gradientUnits="userSpaceOnUse"
       xlink:href="#linearGradient4689"
       id="linearGradient2258"
       y2="76.313133"
       x2="26.670298"
       y1="76.176224"
       x1="172.94208" />
    <radialGradient
       gradientTransform="matrix(1,0,0,0.177966,0,108.7434)"
       gradientUnits="userSpaceOnUse"
       xlink:href="#linearGradient2795"
       id="radialGradient2801"
       fy="132.28575"
       fx="61.518883"
       r="29.036913"
       cy="132.28575"
       cx="61.518883" />
    <linearGradient
       gradientTransform="matrix(0.562541,0,0,0.567972,-9.399749,-5.305317)"
       gradientUnits="userSpaceOnUse"
       xlink:href="#linearGradient4671"
       id="linearGradient1475"
       y2="137.27299"
       x2="112.03144"
       y1="192.35176"
       x1="150.96111" />
    <linearGradient
       gradientTransform="matrix(0.562541,0,0,0.567972,-9.399749,-5.305317)"
       gradientUnits="userSpaceOnUse"
       xlink:href="#linearGradient4689"
       id="linearGradient1478"
       y2="114.39767"
       x2="135.66525"
       y1="20.603781"
       x1="26.648937" />
    <radialGradient
       gradientTransform="matrix(1.7490565e-8,-0.23994696,1.054668,3.7915457e-7,-78.109429,148.85906)"
       gradientUnits="userSpaceOnUse"
       xlink:href="#linearGradient2795"
       id="radialGradient1480"
       fy="132.28575"
       fx="61.518883"
       r="29.036913"
       cy="132.28575"
       cx="61.518883" />
  </defs>
  <path
     id="path4215"
     d="m 13.19566,4.4541991 c 0.71926,0 1.30666,0.5726002 1.30666,1.2768004 C 14.50232,6.4325998 13.91494,7 13.19566,7 12.4738,7 11.889,6.4325998 11.889,5.7309995 c 0,-0.7042002 0.5848,-1.2768004 1.30666,-1.2768004 z"
     style="fill:#000000;fill-opacity:1;stroke:none;stroke-width:2;stroke-linecap:round;stroke-miterlimit:4;stroke-dasharray:none;stroke-opacity:1" />
  <path
     id="path4213"
     d="m 16.415944,9.1394255 -6.9634067,0 -2.6133084,0 c -2.0237603,0 -3.7940505,1.1672005 -4.3501006,3.3866815 -0.6375801,2.544821 -0.6666001,4.131901 0,6.788922 0.4960801,1.977401 1.6770802,3.386681 3.7008325,3.386681 l 2.3941784,0 0,-3.051901 c 0,-2.20482 1.9886198,-4.149661 4.3501028,-4.149661 l 6.955291,0 c 1.9361,0 3.481704,-1.529201 3.481704,-3.394461 l 0,-6.3607227 c 0,-1.8102007 -1.59198,-3.1703212 -3.481704,-3.4723213 -1.19618,-0.192 -2.437381,-0.2778001 -3.627789,-0.2724001 -1.19042,0.005 -2.327186,0.1020001 -3.327502,0.2724001 C 9.9875794,2.7722432 9.4525373,3.8172436 9.4525373,5.7449643 l 0,3.3945412"
     style="fill:none;fill-opacity:1;stroke:#000000;stroke-width:2;stroke-opacity:1;stroke-miterlimit:4;stroke-dasharray:none;stroke-linecap:round" />
  <path
     id="path4211"
     d="m 18.75966,24.841199 c 0.72186,0 1.30666,0.567401 1.30666,1.269001 0,0.7042 -0.5848,1.2768 -1.30666,1.2768 -0.71928,0 -1.30666,-0.5726 -1.30666,-1.2768 0,-0.7016 0.58738,-1.269001 1.30666,-1.269001 z"
     style="fill:#000000;fill-opacity:1;stroke:none;stroke-width:2;stroke-linecap:round;stroke-miterlimit:4;stroke-dasharray:none;stroke-opacity:1" />
  <path
     id="path4209"
     d="m 8.5841772,22.67439 0,3.421782 c 0,1.8104 1.6409798,2.875101 3.4817028,3.394461 2.204224,0.6218 4.317958,0.7342 6.955293,0 1.75306,-0.487 3.481704,-1.466801 3.481704,-3.394461 l 0,-3.394502"
     style="fill:none;fill-opacity:1;stroke:#000000;stroke-width:2;stroke-opacity:1;stroke-miterlimit:4;stroke-dasharray:none;stroke-linecap:round" />
  <path
     id="path4187"
     d="m 15.547586,22.70171 6.955291,0 3.481705,0 c 2.02376,0 2.777896,-1.3542 3.4817,-3.386681 0.727,-2.092461 0.69608,-4.104681 0,-6.788922 -0.50014,-1.932601 -1.45536,-3.3866815 -3.4817,-3.3866815 l -2.613307,0"
     style="fill:none;fill-opacity:1;stroke:#000000;stroke-width:2;stroke-opacity:1;stroke-miterlimit:4;stroke-dasharray:none;stroke-linecap:round" />
</svg>
