<?xml version="1.0" encoding="UTF-8" standalone="no"?>
<svg
   xmlns:svg="http://www.w3.org/2000/svg"
   xmlns="http://www.w3.org/2000/svg"
   height="16"
   width="16"
   version="1.1"
   >
  <g
     style="fill-opacity:1;stroke:none"
     id="g-edython">
  <path
     d="M 14,10 a 2,2 0 0 0 -2,-2 l -8,0 a 2,2 1 0 1 -2,-2 l 5,0 a 3,3 0 0 0 0,-6 l -3,0 a 4,4 0 0 0 -4,4 l 0,2 a 4,4 0 0 0 4,4 z"
     style="fill:#f9951b"
     id="p-e-orange" />
  <path
     id="p-e-gris"
     style="fill:#98959b"
     d="M 2,6 a 2,2 0 0 0 2,2 l 8,0 a 2,2 0 0 1 2,2 l -5,0 a 3,3 0 0 0 0,6 l 3,0 a 4,4 0 0 0 4,-4 l 0,-2 a 4,4 0 0 0 -4,-4 z" />
  <path
     style="fill:#f9951b"
     id="eye-orange"
     d="m 9,12 a 1,1 0 0 1 0,2 1,1 0 1 1 0,-2 z"
     />
  <path
     d="m 7,2 a 1,1 0 0 1 0,2 1,1 0 1 1 0,-2 z"
     id="eye-grey"
     style="fill:#98959b"
     />
  </g>
</svg>
